<?xml version="1.0" encoding="UTF-8" standalone="no"?>
<!-- Created with Inkscape (http://www.inkscape.org/) -->

<svg
   xmlns:dc="http://purl.org/dc/elements/1.1/"
   xmlns:cc="http://creativecommons.org/ns#"
   xmlns:rdf="http://www.w3.org/1999/02/22-rdf-syntax-ns#"
   xmlns:svg="http://www.w3.org/2000/svg"
   xmlns="http://www.w3.org/2000/svg"
   xmlns:sodipodi="http://sodipodi.sourceforge.net/DTD/sodipodi-0.dtd"
   xmlns:inkscape="http://www.inkscape.org/namespaces/inkscape"
   id="svg4136"
   version="1.1"
   inkscape:version="0.48.4 r9939"
   viewBox="0 0 440 280"
   width="100%"
   height="100%"
   sodipodi:docname="promotional_440x280.svg"
   inkscape:export-filename="/home/denilson/myrepos/crx-reload-tab/promotional.png"
   inkscape:export-xdpi="90"
   inkscape:export-ydpi="90">
  <metadata
     id="metadata5140">
    <rdf:RDF>
      <cc:Work
         rdf:about="">
        <dc:format>image/svg+xml</dc:format>
        <dc:type
           rdf:resource="http://purl.org/dc/dcmitype/StillImage" />
        <dc:title />
      </cc:Work>
    </rdf:RDF>
  </metadata>
  <defs
     id="defs5138" />
  <sodipodi:namedview
     id="base"
     pagecolor="#ffffff"
     bordercolor="#666666"
     borderopacity="1.0"
     inkscape:pageopacity="0.0"
     inkscape:pageshadow="2"
     inkscape:zoom="0.5"
     inkscape:cx="398.65792"
     inkscape:cy="199.65957"
     inkscape:document-units="px"
     inkscape:current-layer="g3797"
     showgrid="true"
     inkscape:snap-grids="true"
     inkscape:object-nodes="true"
     inkscape:object-paths="false"
     showguides="true"
     inkscape:guide-bbox="true"
     inkscape:snap-nodes="false"
     inkscape:snap-bbox="false"
     inkscape:bbox-nodes="false"
     inkscape:snap-bbox-edge-midpoints="false"
     inkscape:snap-bbox-midpoints="false"
     inkscape:snap-global="true"
     inkscape:bbox-paths="false">
    <inkscape:grid
       type="xygrid"
       id="grid4652"
       empspacing="4"
       visible="true"
       enabled="true"
       snapvisiblegridlinesonly="true"
       spacingx="27.5px"
       spacingy="17.5px" />
  </sodipodi:namedview>
  <g
     inkscape:label="Layer 1"
     inkscape:groupmode="layer"
     id="layer1"
     transform="translate(0,216)">
    <rect
       style="fill:#d3d7cf;fill-opacity:1;fill-rule:nonzero;stroke:none"
       id="rect5194"
       width="440"
       height="280"
       x="0"
       y="-216" />
    <g
       id="g5161"
       transform="matrix(3.9516127,0,0,3.9516127,-8.2181307,-202.45161)">
      <path
         sodipodi:cx="-47.603439"
         sodipodi:cy="28.257164"
         transform="matrix(0.9627805,0,0,0.9627805,77.831663,10.041394)"
         d="m -22.854702,28.257164 c 0,13.66835 -11.080387,24.748737 -24.748737,24.748737 -13.668351,0 -24.748738,-11.080387 -24.748738,-24.748737 0,-13.66835 11.080387,-24.7487373 24.748738,-24.7487373 13.66835,0 24.748737,11.0803873 24.748737,24.7487373 z"
         sodipodi:type="arc"
         style="fill:#ffffff;stroke:#606060;stroke-width:4"
         sodipodi:ry="24.748737"
         sodipodi:rx="24.748737"
         id="circleborder" />
      <path
         inkscape:transform-center-x="0.18"
         inkscape:transform-center-y="-0.226839"
         inkscape:connector-curvature="0"
         id="arrow"
         d="m 44.019866,24.532509 -4.097102,3.255232 c -2.154739,-1.8069 -4.92191,-2.904474 -7.927497,-2.904474 -6.792882,0 -12.375267,5.582834 -12.375267,12.375266 0,6.792881 5.582833,12.249097 12.375267,12.249097 5.325107,0 9.90129,-3.347095 11.631726,-8.068034 l -4.433849,-1.080377 c -1.186566,2.798107 -3.936271,4.728392 -7.197877,4.728392 -4.366097,0 -7.829618,-3.463297 -7.829618,-7.829617 0,-4.366096 3.463297,-7.955785 7.829618,-7.955785 1.619937,0 3.108408,0.501575 4.349661,1.346992 L 32.289943,33.87637 44.02,36.051224 V 24.531746 z"
         style="fill:#606060;stroke:none" />
      <g
         id="g5115"
         transform="matrix(0.9627805,0,0,0.9627805,77.831663,-904.23415)"
         style="fill:#606060">
        <rect
           id="rect4009"
           ry="1.2627"
           height="8.3338003"
           width="9.849"
           y="940.229"
           x="-52.653999" />
        <rect
           id="rect4011"
           ry="0"
           height="2.9042001"
           width="3.7881"
           y="948.37329"
           x="-49.624001" />
      </g>
      <g
         id="g5119"
         transform="matrix(0.48205797,-0.48205797,0.48205797,0.48205797,-420.35572,-462.49182)"
         style="fill:#606060">
        <rect
           id="rect4025"
           ry="1.2627"
           height="8.3338003"
           width="9.849"
           y="940.229"
           x="-52.653999" />
        <rect
           id="rect4027"
           ry="0"
           height="2.9042001"
           width="3.7881"
           y="948.37329"
           x="-49.624001" />
      </g>
      <g
         id="ticks"
         style="fill:none;stroke:#606060;stroke-width:0.48138499">
        <path
           id="path4061"
           inkscape:connector-curvature="0"
           d="m 32.006529,16.513033 v 2.318938"
           inkscape:transform-center-y="-371.65966" />
        <path
           id="path4065"
           inkscape:transform-center-x="-371.65966"
           d="M 52.706363,37.212919 H 50.387477"
           inkscape:connector-curvature="0" />
        <path
           id="path4067"
           inkscape:connector-curvature="0"
           d="M 32.006529,57.912805 V 55.593919"
           inkscape:transform-center-y="371.65958" />
        <path
           id="path4069"
           inkscape:transform-center-x="371.65958"
           d="m 11.306118,37.212919 h 2.318885"
           inkscape:connector-curvature="0" />
        <path
           id="path4071"
           d="M 42.356209,19.286442 41.19674,21.294653"
           inkscape:transform-center-x="-185.82985"
           inkscape:transform-center-y="-321.86676"
           inkscape:connector-curvature="0" />
        <path
           id="path4073"
           d="m 49.933006,26.862923 -2.008422,1.159469"
           inkscape:transform-center-x="-321.86673"
           inkscape:transform-center-y="-185.8298"
           inkscape:connector-curvature="0" />
        <path
           id="path4075"
           d="m 49.933006,47.563125 -2.008211,-1.15947"
           inkscape:transform-center-x="-321.86669"
           inkscape:transform-center-y="185.8298"
           inkscape:connector-curvature="0" />
        <path
           id="path4077"
           d="M 42.356209,55.139921 41.19674,53.131657"
           inkscape:transform-center-x="-185.82983"
           inkscape:transform-center-y="321.86666"
           inkscape:connector-curvature="0" />
        <path
           id="path4079"
           d="m 21.656323,55.139921 1.15947,-2.008264"
           inkscape:transform-center-x="185.82978"
           inkscape:transform-center-y="321.86666"
           inkscape:connector-curvature="0" />
        <path
           id="path4081"
           d="m 14.079527,47.563125 2.008264,-1.15947"
           inkscape:transform-center-x="321.86667"
           inkscape:transform-center-y="185.8298"
           inkscape:connector-curvature="0" />
        <path
           id="path4083"
           d="m 14.079527,26.862923 2.008421,1.159469"
           inkscape:transform-center-x="321.86665"
           inkscape:transform-center-y="-185.82988"
           inkscape:connector-curvature="0" />
        <path
           id="path4085"
           d="m 21.656323,19.286442 1.15947,2.008264"
           inkscape:transform-center-x="185.82973"
           inkscape:transform-center-y="-321.86666"
           inkscape:connector-curvature="0" />
        <path
           id="path4087"
           d="m 21.656323,19.286442 1.15947,2.008264"
           inkscape:transform-center-x="185.82973"
           inkscape:transform-center-y="-321.86666"
           inkscape:connector-curvature="0" />
      </g>
      <path
         inkscape:connector-curvature="0"
         id="centerdot"
         d="m 32.001132,36.338158 c 0.513713,0 0.907828,0.394115 0.907828,0.907827 0,0.513713 -0.394115,0.910192 -0.907828,0.910192 -0.513712,0 -0.910191,-0.396479 -0.910191,-0.910192 0,-0.513712 0.396479,-0.907827 0.910191,-0.907827 z"
         style="fill:#606060" />
    </g>
    <text
       xml:space="preserve"
       style="font-size:67.08203888px;font-style:normal;font-variant:normal;font-weight:bold;font-stretch:normal;text-align:start;line-height:125%;writing-mode:lr-tb;text-anchor:start;fill:#606060;fill-opacity:1;stroke:none;font-family:Roboto Condensed;-inkscape-font-specification:'Roboto Condensed, Bold'"
       x="252.49117"
       y="-126.44615"
       id="text5186"
       sodipodi:linespacing="125%"
       transform="scale(0.89442719,1.118034)"><tspan
         sodipodi:role="line"
         x="252.49117"
         y="-126.44615"
         id="tspan5190">Tab Auto</tspan><tspan
         sodipodi:role="line"
         x="252.49117"
         y="-42.593605"
         id="tspan5192">Reloader</tspan></text>
    <g
       id="g3797"
       transform="matrix(0.8203125,0,0,0.8203125,-260.83237,130.15484)">
      <path
         transform="matrix(1.8194052,0,0,0.90511951,-530.58829,-144.6459)"
         d="m 687.5,62.09 -6.8612,7.572931 -5.25196,-8.765972 -8.20677,6.088864 -3.44088,-9.622142 -9.23696,4.370807 -1.49758,-10.108539 -9.91218,2.484783 0.50327,-10.206471 -10.20647,0.503269 2.48478,-9.912173 -10.10854,-1.497586 4.37081,-9.236955 -9.62214,-3.440889 6.08886,-8.206767 L 617.83707,6.8611996 625.41,1.6636951e-6 617.83707,-6.8612 l 8.76597,-5.251956 -6.08886,-8.206772 9.62214,-3.440885 -4.37081,-9.236959 10.10854,-1.497582 -2.48478,-9.912176 10.20647,0.503271 -0.50327,-10.206473 9.91217,2.484785 1.49759,-10.108542 9.23695,4.370809 3.44089,-9.622144 8.20677,6.088866 5.25196,-8.765973 6.8612,7.572931 6.8612,-7.572931 5.25196,8.765972 8.20677,-6.088864 3.44088,9.622142 9.23696,-4.370807 1.49758,10.108539 9.91218,-2.484783 -0.50327,10.206471 10.20647,-0.503269 -2.48478,9.912173 10.10854,1.497586 -4.37081,9.236955 9.62214,3.440889 -6.08886,8.206767 8.76597,5.2519604 L 749.59,-1.6636952e-6 757.16293,6.8612 l -8.76597,5.251956 6.08886,8.206772 -9.62214,3.440885 4.37081,9.236959 -10.10854,1.497582 2.48478,9.912176 -10.20647,-0.503271 0.50327,10.206473 -9.91217,-2.484785 -1.49759,10.108542 -9.23695,-4.370809 -3.44089,9.622144 -8.20677,-6.088866 -5.25196,8.765973 z"
         inkscape:randomized="0"
         inkscape:rounded="-3.1225023e-17"
         inkscape:flatsided="false"
         sodipodi:arg2="1.6689711"
         sodipodi:arg1="1.5707963"
         sodipodi:r2="70"
         sodipodi:r1="62.09"
         sodipodi:cy="0"
         sodipodi:cx="687.5"
         sodipodi:sides="32"
         id="path3027"
         style="fill:#ffffff;fill-opacity:1;fill-rule:nonzero;stroke:#606060;stroke-opacity:1"
         sodipodi:type="star" />
      <text
         xml:space="preserve"
         style="font-size:28.15999985px;font-style:normal;font-variant:normal;font-weight:bold;font-stretch:normal;text-align:center;line-height:125%;writing-mode:lr-tb;text-anchor:middle;fill:#606060;fill-opacity:1;stroke:none;font-family:Roboto Condensed;-inkscape-font-specification:'Roboto Condensed, Bold'"
         x="720.25964"
         y="-154.95152"
         id="text3012"
         sodipodi:linespacing="125%"><tspan
           sodipodi:role="line"
           x="720.25964"
           y="-154.95152"
           id="tspan3018">Open-source!</tspan><tspan
           id="tspan3025"
           sodipodi:role="line"
           x="720.25964"
           y="-119.75153">No permissions!</tspan></text>
    </g>
  </g>
</svg>
